<?xml version="1.0" standalone="no"?>
<!DOCTYPE svg PUBLIC "-//W3C//DTD SVG 20010904//EN"
 "http://www.w3.org/TR/2001/REC-SVG-20010904/DTD/svg10.dtd">
<svg version="1.0" xmlns="http://www.w3.org/2000/svg"
 width="512.000000pt" height="512.000000pt" viewBox="0 0 512.000000 512.000000"
 preserveAspectRatio="xMidYMid meet">
<metadata>
Created by potrace 1.11, written by Peter Selinger 2001-2013
</metadata>
<g transform="translate(0.000000,512.000000) scale(0.100000,-0.100000)"
fill="#000000" stroke="none">
<path d="M0 2560 l0 -2560 2560 0 2560 0 0 2560 0 2560 -2560 0 -2560 0 0
-2560z m1899 736 c47 -42 11 -147 -86 -256 -75 -84 -155 -158 -326 -305 -76
-64 -136 -119 -134 -121 2 -3 66 17 143 42 113 38 156 48 232 52 159 8 283
-42 298 -123 16 -85 -67 -224 -193 -328 -38 -30 -124 -92 -193 -137 -69 -46
-143 -97 -165 -115 -22 -18 -50 -35 -63 -39 -27 -9 -52 8 -52 34 0 33 57 95
119 130 240 135 409 276 446 374 17 44 17 47 0 66 -9 10 -42 25 -72 31 -106
24 -258 -8 -511 -108 -93 -37 -93 -37 -88 -67 3 -17 15 -101 26 -186 12 -85
25 -164 30 -175 18 -43 30 -89 30 -117 0 -25 -4 -29 -22 -26 -75 10 -176 413
-183 731 l-4 147 33 0 c46 0 56 -15 56 -86 0 -35 5 -66 10 -69 13 -8 107 67
285 226 197 175 319 318 300 349 -22 36 -395 -108 -515 -199 -118 -90 -251
-216 -257 -243 -5 -24 -10 -28 -39 -28 -26 0 -37 6 -45 24 -15 33 9 76 90 157
215 214 566 393 758 386 53 -2 76 -7 92 -21z m932 -36 c39 -11 64 -49 54 -81
-6 -17 -13 -18 -59 -13 -64 8 -97 -7 -158 -72 -64 -68 -103 -127 -167 -254
-91 -177 -170 -386 -191 -502 -31 -166 67 -288 230 -288 171 0 359 171 377
344 10 101 -42 186 -115 186 -23 0 -38 -9 -62 -40 -26 -33 -44 -44 -111 -65
-82 -26 -100 -24 -128 8 -31 38 57 115 193 168 192 76 306 -12 306 -235 0
-119 -40 -197 -164 -322 -121 -120 -178 -149 -296 -149 -76 0 -93 4 -152 33
-75 37 -127 97 -155 178 -21 62 -12 221 18 324 45 154 182 436 289 596 60 88
147 169 197 182 51 13 53 13 94 2z m1413 -192 c23 -37 -1 -42 -384 -78 -118
-12 -330 -56 -330 -69 0 -33 133 -456 188 -598 74 -190 112 -318 112 -374 0
-50 -21 -84 -50 -84 -23 0 -25 4 -31 65 -4 46 -26 119 -74 245 -37 99 -71 187
-76 196 -5 9 -44 132 -88 273 -43 142 -81 259 -83 261 -2 3 -76 -4 -164 -15
-87 -11 -189 -20 -227 -20 -62 0 -68 2 -78 24 -7 14 -9 36 -5 50 6 24 10 26
54 23 26 -1 129 7 229 18 174 18 182 20 188 42 6 27 17 29 54 7 24 -14 33 -14
101 0 41 9 172 23 290 31 118 8 224 17 235 19 51 10 128 1 139 -16z"/>
</g>
</svg>
