<?xml version="1.0" standalone="no"?>
<!DOCTYPE svg PUBLIC "-//W3C//DTD SVG 20010904//EN"
 "http://www.w3.org/TR/2001/REC-SVG-20010904/DTD/svg10.dtd">
<svg version="1.0" xmlns="http://www.w3.org/2000/svg"
 width="512.000000pt" height="512.000000pt" viewBox="0 0 512.000000 512.000000"
 preserveAspectRatio="xMidYMid meet">
<metadata>
Created by potrace 1.11, written by Peter Selinger 2001-2013
</metadata>
<g transform="translate(0.000000,512.000000) scale(0.100000,-0.100000)"
fill="#000000" stroke="none">
<path d="M0 2560 l0 -2560 2560 0 2560 0 0 2560 0 2560 -2560 0 -2560 0 0
-2560z m3227 1237 c16 -9 34 -22 40 -29 28 -36 20 -106 -18 -150 -19 -22 -20
-22 -32 -4 -51 80 -106 116 -177 116 -59 0 -100 -21 -148 -75 -128 -145 -163
-535 -66 -733 59 -121 186 -135 294 -33 l49 46 16 114 c9 62 15 143 13 180
l-3 66 50 0 c45 0 51 -3 64 -30 12 -26 11 -47 -8 -185 -25 -178 -26 -225 -6
-260 20 -34 19 -37 -14 -55 -42 -21 -85 -4 -103 42 l-14 35 -30 -25 c-85 -72
-206 -97 -299 -62 -90 35 -157 136 -186 284 -16 86 -6 275 20 366 83 283 265
442 477 414 28 -4 64 -14 81 -22z m-913 9 c146 -44 203 -161 142 -291 -25 -53
-101 -132 -157 -161 l-34 -17 47 -13 c84 -21 133 -58 164 -119 23 -48 26 -64
21 -115 -10 -114 -91 -236 -194 -293 -96 -52 -286 -62 -369 -19 -78 40 -80 78
-25 475 51 365 55 411 42 482 -6 32 -10 60 -8 62 2 1 28 7 58 12 88 14 260 13
313 -3z m943 -1388 c27 -22 35 -86 23 -186 -11 -93 -55 -400 -65 -452 l-4 -25
11 25 c75 169 114 237 167 291 53 55 60 59 102 59 127 0 198 -146 186 -383 -9
-174 -57 -299 -145 -379 -28 -24 -68 -50 -90 -56 -83 -25 -177 -9 -229 40 -13
12 -24 20 -26 17 -2 -2 -8 -16 -15 -31 -10 -24 -18 -28 -51 -28 -65 0 -66 4
-37 237 57 464 74 723 53 830 -8 41 -8 42 25 52 35 10 75 6 95 -11z m-2052
-59 c94 -35 118 -104 64 -181 -21 -29 -24 -30 -33 -13 -49 85 -131 131 -217
123 -86 -9 -139 -68 -139 -158 0 -64 29 -101 168 -213 203 -164 241 -219 242
-343 0 -168 -127 -279 -320 -278 -221 2 -339 130 -238 259 l21 27 17 -45 c41
-108 112 -161 219 -161 119 -1 184 54 184 158 0 88 -33 132 -195 263 -178 144
-215 203 -205 328 7 97 60 175 147 220 76 39 201 45 285 14z m1653 -1 c15 -15
16 -72 2 -98 -12 -22 -82 -44 -111 -35 -28 9 -41 41 -34 85 4 25 14 41 28 48
30 15 100 15 115 0z m-938 -243 c50 -26 64 -79 36 -134 -27 -52 -41 -56 -64
-16 -30 50 -76 75 -138 75 -115 0 -178 -91 -205 -297 -24 -188 32 -330 141
-354 74 -17 153 18 186 84 16 29 17 30 30 12 24 -32 17 -81 -16 -119 -41 -46
-108 -71 -190 -70 -83 1 -133 18 -182 62 -112 101 -134 292 -58 490 54 140
126 221 233 264 55 22 187 24 227 3z m644 -19 c29 -62 19 -106 -25 -106 -80 0
-185 -101 -254 -245 -24 -49 -49 -114 -55 -144 -16 -67 -8 -176 15 -220 17
-34 17 -35 -5 -53 -16 -13 -36 -18 -64 -16 -88 7 -105 97 -67 360 30 201 34
285 21 358 -10 58 -10 65 6 77 28 20 85 16 111 -9 28 -26 30 -87 8 -222 -8
-49 -13 -91 -11 -93 2 -2 13 20 25 49 36 87 98 185 156 243 44 46 59 55 88 55
30 0 37 -5 51 -34z m1776 16 c113 -56 107 -221 -12 -344 -73 -74 -182 -118
-295 -118 l-53 0 0 -38 c0 -106 58 -200 137 -221 70 -19 134 1 186 59 40 45
44 47 55 29 53 -85 -64 -184 -218 -184 -174 0 -277 106 -288 297 -6 110 9 189
58 295 73 156 188 243 324 243 48 0 82 -6 106 -18z m-1511 -18 c26 -34 26 -70
1 -244 -11 -74 -23 -200 -26 -280 -5 -134 -4 -148 15 -185 l22 -40 -22 -17
c-33 -27 -91 -23 -120 8 -34 37 -38 153 -9 349 24 162 29 334 12 377 -10 24
-8 29 11 43 35 25 92 19 116 -11z"/>
<path d="M2090 3718 c0 -18 -11 -109 -25 -203 -14 -93 -25 -172 -25 -173 0
-11 114 14 162 35 113 50 171 146 148 244 -23 94 -74 129 -189 129 l-71 0 0
-32z"/>
<path d="M2077 3281 c-20 -4 -40 -10 -43 -14 -12 -11 -34 -205 -34 -299 0 -94
1 -98 26 -115 36 -23 136 -23 196 0 170 66 200 318 48 401 -55 30 -129 40
-193 27z"/>
<path d="M3434 2000 c-73 -29 -190 -272 -229 -475 -18 -90 -18 -89 60 -126 80
-37 171 -13 220 59 97 141 96 497 -2 541 -13 6 -25 11 -26 10 -1 0 -11 -4 -23
-9z"/>
<path d="M4104 2021 c-17 -10 -40 -32 -52 -48 -25 -35 -58 -131 -67 -197 l-8
-49 81 5 c68 4 89 10 129 34 104 64 141 179 78 244 -25 26 -36 30 -79 30 -32
0 -62 -7 -82 -19z"/>
</g>
</svg>
